<?xml version="1.0" encoding="UTF-8" standalone="no"?>
<svg
   viewBox="0 0 24 24"
   version="1.1"
   id="svg4"
   sodipodi:docname="eye.svg"
   inkscape:version="1.2.2 (b0a8486541, 2022-12-01)"
   xmlns:inkscape="http://www.inkscape.org/namespaces/inkscape"
   xmlns:sodipodi="http://sodipodi.sourceforge.net/DTD/sodipodi-0.dtd"
   xmlns="http://www.w3.org/2000/svg"
   xmlns:svg="http://www.w3.org/2000/svg">
  <defs
     id="defs8" />
  <sodipodi:namedview
     id="namedview6"
     pagecolor="#ffffff"
     bordercolor="#cccccc"
     borderopacity="1"
     inkscape:showpageshadow="0"
     inkscape:pageopacity="1"
     inkscape:pagecheckerboard="0"
     inkscape:deskcolor="#d1d1d1"
     showgrid="false"
     inkscape:zoom="9.8333333"
     inkscape:cx="6.9152543"
     inkscape:cy="12.050847"
     inkscape:window-width="1280"
     inkscape:window-height="701"
     inkscape:window-x="0"
     inkscape:window-y="27"
     inkscape:window-maximized="1"
     inkscape:current-layer="svg4" />
  <path
     d="m 12,4.7035885 c -5,0 -9.27,3.0748244 -11,7.4151715 1.73,4.340347 6,7.415171 11,7.415171 0.36,0 0.72,0 1.08,-0.04943 C 13.03,19.168116 13,18.861623 13,18.545242 c 0,-0.553666 0.08,-1.107332 0.24,-1.641225 -0.41,0.09887 -0.82,0.158191 -1.24,0.158191 A 5,4.9434477 0 0 1 7,12.11876 5,4.9434477 0 0 1 12,7.1753123 5,4.9434477 0 0 1 17,12.11876 c 0,0.28672 -0.03,0.583327 -0.08,0.870047 0.66,-0.247173 1.37,-0.375702 2.08,-0.375702 1.17,0 2.31,0.336154 3.29,0.988689 C 22.56,13.107449 22.8,12.613105 23,12.11876 21.27,7.7784129 17,4.7035885 12,4.7035885 m 0,4.4491028 A 3,2.9660686 0 0 0 9,12.11876 3,2.9660686 0 0 0 12,15.084829 3,2.9660686 0 0 0 15,12.11876 3,2.9660686 0 0 0 12,9.1526913 m 6,5.4377927 v 2.966068 h -3 v 1.977379 h 3 V 22.5 h 2 v -2.966069 h 3 v -1.977379 h -3 v -2.966068 z"
     id="path2"
     style="fill:#000000;stroke-width:0.994329" />
</svg>
