<?xml version="1.0" encoding="iso-8859-1"?>
<!-- Generator: Adobe Illustrator 22.0.1, SVG Export Plug-In . SVG Version: 6.00 Build 0)  -->
<svg version="1.1" xmlns="http://www.w3.org/2000/svg" xmlns:xlink="http://www.w3.org/1999/xlink" x="0px" y="0px"
	 viewBox="0 0 512 512" style="enable-background:new 0 0 512 512;" xml:space="preserve">
<g id="BULINE">
	<path id="XMLID_2347_" style="fill:#EFCA66;" d="M512,256c0,70.692-28.654,134.692-74.981,181.019S326.692,512,256,512
		s-134.692-28.654-181.019-74.981S0,326.692,0,256S28.654,121.308,74.981,74.981S185.308,0,256,0s134.692,28.654,181.019,74.981
		S512,185.308,512,256z"/>
</g>
<g id="Icons">
	<g id="XMLID_2325_">
		<path id="XMLID_2432_" style="fill:#E8B94A;" d="M512,256c0,25.785-3.812,50.68-10.905,74.151S483.63,375.67,470.51,395.76
			c-13.12-20.09-23.492-42.137-30.585-65.609S429.02,281.785,429.02,256c0-25.79,3.812-50.688,10.904-74.16
			s17.461-45.52,30.576-65.61c13.125,20.09,23.5,42.138,30.594,65.61S512,230.21,512,256z"/>
		<path id="XMLID_2348_" style="fill:#E8B94A;" d="M96,256c0,27.85-4.447,54.66-12.67,79.76s-20.22,48.49-35.32,69.5
			c-15.11-21.01-27.113-44.4-35.338-69.5S0,283.85,0,256s4.447-54.66,12.671-79.76S32.895,127.75,48,106.74
			c15.105,21.01,27.105,44.4,35.329,69.5S96,228.15,96,256z"/>
		<g id="XMLID_2291_">
			<path id="XMLID_2328_" style="fill:#533022;" d="M306.276,230.835H255.83h-50.447c-17.686,0-33.698-7.169-45.288-18.759
				c-11.59-11.59-18.759-27.602-18.759-45.288v-16.643v-16.643H255.83h114.493v16.643v16.643c0,17.686-7.169,33.698-18.759,45.288
				C339.974,223.666,323.962,230.835,306.276,230.835z"/>
			<path id="XMLID_2431_" style="fill:#F5BB96;" d="M398.03,469.02c-20.32,13.575-42.693,24.32-66.553,31.671S282.27,512,256,512
				c-10.145,0-20.15-0.59-29.984-1.739s-19.496-2.856-28.956-5.091c-15.325-3.605-30.115-8.59-44.235-14.815
				s-27.57-13.69-40.215-22.255l3.135-21.625l3.135-21.625c0.165-1.115,0.343-2.225,0.533-3.33s0.393-2.205,0.607-3.3
				c0.215-1.09,0.445-2.182,0.687-3.268s0.497-2.166,0.762-3.232c0,0,0,0,0-0.001s0-0.004,0-0.009
				c0.115-0.435,0.228-0.868,0.343-1.299s0.232-0.861,0.357-1.291c0.26-0.99,0.538-1.98,0.829-2.965s0.596-1.965,0.911-2.935
				c0.115-0.35,0.23-0.697,0.346-1.043s0.234-0.691,0.354-1.036c0.355-1.035,0.725-2.068,1.106-3.095s0.774-2.05,1.174-3.065
				c1.03-2.565,2.14-5.095,3.325-7.58s2.445-4.925,3.775-7.31c0.96-1.715,1.955-3.407,2.986-5.075s2.099-3.31,3.204-4.925
				c0.42-0.61,0.843-1.215,1.27-1.817c0.427-0.603,0.86-1.203,1.3-1.803c0.1-0.14,0.202-0.28,0.306-0.418s0.209-0.276,0.314-0.411
				c0.245-0.325,0.49-0.647,0.735-0.969c0.245-0.321,0.49-0.641,0.735-0.961c0.2-0.255,0.4-0.51,0.601-0.764
				s0.404-0.506,0.609-0.756c0.325-0.415,0.655-0.825,0.99-1.233c0.335-0.407,0.675-0.812,1.02-1.217
				c0.2-0.24,0.408-0.483,0.618-0.725c0.21-0.242,0.422-0.485,0.632-0.725c4.635-5.315,9.703-10.237,15.156-14.705
				s11.294-8.48,17.474-11.975v-0.005V331.6c0.08-0.04,0.157-0.085,0.235-0.131s0.155-0.094,0.235-0.139
				c3.14-1.75,6.363-3.373,9.665-4.856c3.303-1.484,6.685-2.829,10.145-4.024l2.075-0.72l2.075-0.72h0.005h0.005l2.175-0.76
				l2.175-0.76l2.88-0.99l2.88-0.99l0.225-0.08l0.225-0.08l4.96-1.72l4.96-1.72l0.405-0.145l0.405-0.145
				c0.005,0,0.01-0.003,0.016-0.005s0.014-0.005,0.024-0.005c0.77-0.265,1.437-0.72,1.949-1.305s0.866-1.3,1.011-2.085
				c0.03-0.135,0.053-0.275,0.068-0.416c0.015-0.141,0.023-0.284,0.023-0.424v-21.515V266.35h27.465h27.465v21.875V310.1
				c0,0.02,0,0.037,0.001,0.056s0.004,0.039,0.009,0.063c0.015,0.77,0.232,1.503,0.61,2.141s0.915,1.184,1.57,1.579
				c0,0.005,0.003,0.008,0.005,0.009s0.005,0.001,0.005,0.001c0.065,0.045,0.135,0.082,0.207,0.117s0.147,0.067,0.223,0.102
				l0.04,0.025l0.04,0.025l6.065,2.75l6.065,2.75l0.47,0.21l0.47,0.21l1.11,0.375l1.11,0.375l2.07,0.7l2.07,0.7h0.005h0.005
				l0.12,0.035l0.12,0.035c0.03,0.015,0.057,0.025,0.084,0.033s0.051,0.013,0.076,0.018v0.005v0.005
				c0.22,0.075,0.438,0.15,0.655,0.226s0.435,0.154,0.655,0.234c1.17,0.41,2.33,0.838,3.48,1.281s2.29,0.904,3.42,1.379
				c0.68,0.28,1.36,0.57,2.037,0.869s1.353,0.606,2.023,0.921c0.34,0.16,0.675,0.317,1.009,0.476s0.666,0.319,1.001,0.484
				c0.56,0.27,1.117,0.545,1.674,0.824s1.111,0.561,1.666,0.846c0.205,0.11,0.41,0.22,0.616,0.33s0.414,0.22,0.624,0.33
				c0.87,0.465,1.728,0.945,2.579,1.434s1.696,0.986,2.541,1.486c2.01,1.22,3.988,2.487,5.925,3.809
				c1.938,1.321,3.835,2.696,5.685,4.131c0.455,0.35,0.91,0.708,1.365,1.07s0.91,0.73,1.365,1.1
				c4.22,3.43,8.208,7.135,11.943,11.085s7.217,8.145,10.427,12.555c0.19,0.255,0.378,0.515,0.564,0.776s0.371,0.524,0.556,0.784
				c1.49,2.12,2.915,4.277,4.276,6.48s2.659,4.45,3.894,6.75v0.005v0.005c0.015,0.025,0.028,0.048,0.04,0.07s0.025,0.045,0.04,0.07
				c3.67,6.86,6.743,14.083,9.156,21.6c2.414,7.518,4.169,15.33,5.204,23.37l2.685,20.91L398.03,469.02z"/>
			<path id="XMLID_2412_" style="fill:#FFFFFF;" d="M398.03,469.02c-20.32,13.575-42.693,24.32-66.553,31.671S282.27,512,256,512
				c-10.145,0-20.15-0.59-29.984-1.739s-19.496-2.856-28.956-5.091c-15.325-3.605-30.115-8.59-44.235-14.815
				s-27.57-13.69-40.215-22.255l3.135-21.625l3.135-21.625c0.165-1.115,0.343-2.225,0.533-3.33s0.393-2.205,0.607-3.3
				c0.215-1.09,0.445-2.182,0.687-3.268s0.497-2.166,0.762-3.232c0,0,0,0,0-0.001s0-0.004,0-0.009
				c0.115-0.435,0.228-0.868,0.343-1.299s0.232-0.861,0.357-1.291c0.26-0.99,0.538-1.98,0.829-2.965s0.596-1.965,0.911-2.935
				c0.115-0.35,0.23-0.697,0.346-1.043s0.234-0.691,0.354-1.036c0.355-1.035,0.725-2.068,1.106-3.095s0.774-2.05,1.174-3.065
				c1.03-2.565,2.14-5.095,3.325-7.58s2.445-4.925,3.775-7.31c0.96-1.715,1.955-3.407,2.986-5.075s2.099-3.31,3.204-4.925
				c0.42-0.61,0.843-1.215,1.27-1.817c0.427-0.603,0.86-1.203,1.3-1.803c0.1-0.14,0.202-0.28,0.306-0.418s0.209-0.276,0.314-0.411
				c0.245-0.325,0.49-0.647,0.735-0.969c0.245-0.321,0.49-0.641,0.735-0.961c0.2-0.255,0.4-0.51,0.601-0.764
				s0.404-0.506,0.609-0.756c0.325-0.415,0.655-0.825,0.99-1.233c0.335-0.407,0.675-0.812,1.02-1.217
				c0.2-0.24,0.408-0.483,0.618-0.725c0.21-0.242,0.422-0.485,0.632-0.725c4.635-5.315,9.703-10.237,15.156-14.705
				s11.294-8.48,17.474-11.975v-0.005V331.6c0.08-0.04,0.157-0.085,0.235-0.131s0.155-0.094,0.235-0.139
				c3.14-1.75,6.363-3.373,9.665-4.856c3.303-1.484,6.685-2.829,10.145-4.024l2.075-0.72l2.075-0.72h0.005h0.005l2.175-0.76
				l2.175-0.76l2.88-0.99l2.88-0.99l0.225-0.08l0.225-0.08l7.865,6.65l7.865,6.65l10.46,8.84l10.46,8.84l1.815,1.535l1.815,1.535
				l0.07,0.06l0.07,0.06l0.015,0.01l0.015,0.01l0.01-0.005l0.01-0.005l0.085-0.065l0.085-0.065l0.095-0.07l0.095-0.07l0.385-0.285
				l0.385-0.285l1.73-1.275l1.73-1.275l19.265-14.21l19.265-14.21l0.47,0.21l0.47,0.21l1.11,0.375l1.11,0.375l2.07,0.7l2.07,0.7
				h0.005h0.005l0.12,0.035l0.12,0.035c0.03,0.015,0.057,0.025,0.084,0.033s0.051,0.013,0.076,0.018v0.005v0.005
				c0.22,0.075,0.438,0.15,0.655,0.226s0.435,0.154,0.655,0.234c1.17,0.41,2.33,0.838,3.48,1.281s2.29,0.904,3.42,1.379
				c0.68,0.28,1.36,0.57,2.037,0.869s1.353,0.606,2.023,0.921c0.34,0.16,0.675,0.317,1.009,0.476s0.666,0.319,1.001,0.484
				c0.56,0.27,1.117,0.545,1.674,0.824s1.111,0.561,1.666,0.846c0.205,0.11,0.41,0.22,0.616,0.33s0.414,0.22,0.624,0.33
				c0.87,0.465,1.728,0.945,2.579,1.434s1.696,0.986,2.541,1.486c2.01,1.22,3.988,2.487,5.925,3.809
				c1.938,1.321,3.835,2.696,5.685,4.131c0.455,0.35,0.91,0.708,1.365,1.07s0.91,0.73,1.365,1.1
				c4.22,3.43,8.208,7.135,11.943,11.085s7.217,8.145,10.427,12.555c0.19,0.255,0.378,0.515,0.564,0.776s0.371,0.524,0.556,0.784
				c1.49,2.12,2.915,4.277,4.276,6.48s2.659,4.45,3.894,6.75v0.005v0.005c0.015,0.025,0.028,0.048,0.04,0.07s0.025,0.045,0.04,0.07
				c3.67,6.86,6.743,14.083,9.156,21.6c2.414,7.518,4.169,15.33,5.204,23.37l2.685,20.91L398.03,469.02z"/>
			<path id="XMLID_2355_" style="fill:#CCCCCC;" d="M216.94,317.35l7.865,6.65l7.865,6.65c-0.21,0.105-0.42,0.218-0.63,0.333
				c-0.21,0.115-0.42,0.233-0.63,0.348c-0.08,0.045-0.157,0.092-0.235,0.139s-0.155,0.091-0.235,0.131v0.005v0.005
				c-2.71,1.53-5.355,3.163-7.931,4.89c-2.576,1.728-5.084,3.55-7.519,5.46c-3.115,2.445-6.11,5.035-8.976,7.76
				c-2.866,2.725-5.604,5.585-8.204,8.57c-0.21,0.24-0.422,0.482-0.632,0.725c-0.21,0.242-0.418,0.485-0.618,0.725
				c-0.925,1.09-1.83,2.195-2.715,3.316c-0.885,1.121-1.75,2.259-2.595,3.413c-0.44,0.6-0.872,1.2-1.3,1.803
				c-0.428,0.603-0.85,1.208-1.27,1.817c-1.105,1.615-2.173,3.258-3.204,4.925s-2.026,3.36-2.986,5.075
				c-1.33,2.385-2.59,4.825-3.775,7.31s-2.295,5.015-3.325,7.58c-0.4,1.015-0.792,2.037-1.174,3.065s-0.751,2.06-1.106,3.095
				c-0.12,0.345-0.237,0.69-0.354,1.036c-0.116,0.346-0.231,0.694-0.346,1.043c-0.315,0.97-0.62,1.95-0.911,2.935
				c-0.291,0.985-0.569,1.975-0.829,2.965c-0.125,0.43-0.242,0.86-0.357,1.291c-0.115,0.431-0.228,0.864-0.343,1.299
				c0,0.005,0,0.007,0,0.009s0,0.001,0,0.001c-0.265,1.065-0.52,2.145-0.762,3.232s-0.472,2.179-0.687,3.268
				c-0.215,1.095-0.417,2.195-0.607,3.3s-0.368,2.215-0.533,3.33l-1.805,12.48l-1.805,12.48c-1.57,10.835,0.412,21.565,5.232,30.817
				c4.82,9.253,12.478,17.028,22.258,21.953c0.88,0.44,1.76,0.877,2.643,1.31c0.882,0.432,1.767,0.86,2.657,1.28
				c-15.325-3.605-30.115-8.59-44.235-14.815s-27.57-13.69-40.215-22.255l3.135-21.625l3.135-21.625
				c0.165-1.115,0.343-2.225,0.533-3.33s0.393-2.205,0.607-3.3c0.215-1.09,0.445-2.182,0.687-3.268s0.497-2.166,0.762-3.232
				c0,0,0,0,0-0.001s0-0.004,0-0.009c0.115-0.435,0.228-0.868,0.343-1.299s0.232-0.861,0.357-1.291
				c0.26-0.99,0.538-1.98,0.829-2.965s0.596-1.965,0.911-2.935c0.115-0.35,0.23-0.697,0.346-1.043s0.234-0.691,0.354-1.036
				c0.355-1.035,0.725-2.068,1.106-3.095s0.774-2.05,1.174-3.065c1.03-2.565,2.14-5.095,3.325-7.58s2.445-4.925,3.775-7.31
				c0.96-1.715,1.955-3.407,2.986-5.075s2.099-3.31,3.204-4.925c0.42-0.61,0.843-1.215,1.27-1.817c0.427-0.603,0.86-1.203,1.3-1.803
				c0.1-0.14,0.202-0.28,0.306-0.418s0.209-0.276,0.314-0.411c0.245-0.325,0.49-0.647,0.735-0.969
				c0.245-0.321,0.49-0.641,0.735-0.961c0.2-0.255,0.4-0.51,0.601-0.764s0.404-0.506,0.609-0.756
				c0.325-0.415,0.655-0.825,0.99-1.233c0.335-0.407,0.675-0.812,1.02-1.217c0.2-0.24,0.408-0.483,0.618-0.725
				c0.21-0.242,0.422-0.485,0.632-0.725c4.635-5.315,9.703-10.237,15.156-14.705s11.294-8.48,17.474-11.975v-0.005V331.6
				c0.08-0.04,0.157-0.085,0.235-0.131s0.155-0.094,0.235-0.139c3.14-1.75,6.363-3.373,9.665-4.856
				c3.303-1.484,6.685-2.829,10.145-4.024l2.075-0.72l2.075-0.72h0.005h0.005l2.175-0.76l2.175-0.76l2.88-0.99l2.88-0.99l0.225-0.08
				L216.94,317.35z"/>
			<path id="XMLID_2324_" style="fill:#A07975;" d="M285.517,275.134h-27.374h-27.374v15.093v15.093
				c9.125,3.263,18.249,4.895,27.374,4.895c9.125,0,18.249-1.632,27.374-4.895v-15.093V275.134z"/>
			<path id="XMLID_2323_" style="fill:#F5BB96;" d="M267.906,42.747H255.83h-12.076c-23.01,0-43.841,9.898-58.92,25.9
				c-15.079,16.002-24.405,38.109-24.405,62.527v32.445v32.445c0,24.205,9.631,40.183,22.772,53.188
				c13.142,13.004,29.794,23.034,43.837,35.342c8.361,7.328,18.576,10.991,28.791,10.991c10.215,0,20.431-3.664,28.792-10.991
				c14.043-12.308,30.696-22.338,43.837-35.342c13.142-13.004,22.772-28.983,22.772-53.188V163.62v-32.445
				c0-24.418-9.326-46.525-24.405-62.527S290.916,42.747,267.906,42.747z"/>
			<path id="XMLID_2321_" style="fill:#B78B84;" d="M195.388,196.064v-32.443v-32.443c0-23.376,8.544-44.631,22.499-60.441
				c13.955-15.809,33.32-26.173,54.961-27.767c-0.968-0.076-1.942-0.133-2.921-0.171c-0.979-0.038-1.963-0.057-2.953-0.057h-12.08
				h-12.08c-23.006,0-43.837,9.899-58.916,25.903s-24.407,38.113-24.407,62.533v16.082v16.082c-5.053,0.246-9.591,2.45-12.867,5.872
				s-5.288,8.059-5.288,13.173c0,5.145,2.036,9.808,5.347,13.236c3.31,3.427,7.895,5.618,12.991,5.818
				c1.378,22.104,11.232,36.974,24.118,49.277s28.805,22.04,42.313,33.88c6.684,5.858,14.552,9.374,22.656,10.546
				c8.104,1.172,16.444,0,24.075-3.519c-1.914-0.87-3.785-1.893-5.597-3.065c-1.811-1.172-3.562-2.494-5.238-3.962
				c-14.043-12.308-30.697-22.34-43.84-35.346S195.388,220.267,195.388,196.064z"/>
			<path id="XMLID_2320_" style="fill:#F5BB96;" d="M332.139,182.387c0,5.272,2.137,10.045,5.592,13.5
				c3.455,3.455,8.228,5.592,13.5,5.592s10.045-2.137,13.5-5.592s5.592-8.228,5.592-13.5c0-5.272-2.137-10.045-5.592-13.5
				s-8.228-5.592-13.5-5.592s-10.045,2.137-13.5,5.592C334.276,172.342,332.139,177.115,332.139,182.387z"/>
			<path style="fill:#904946;" d="M230.933,159.664c-0.65,0-1.307-0.181-1.894-0.559c-7.833-5.056-17.137-6.58-27.651-4.534
				c-7.906,1.539-13.545,4.622-13.601,4.653c-1.69,0.936-3.819,0.325-4.756-1.364c-0.937-1.688-0.332-3.814,1.355-4.754
				c0.266-0.147,6.608-3.644,15.665-5.406c12.175-2.37,23.512-0.46,32.783,5.522c1.625,1.049,2.091,3.215,1.043,4.839
				C233.208,159.099,232.083,159.664,230.933,159.664z"/>
			<path id="XMLID_2318_" style="fill:#533022;" d="M216.17,180.084c0,3.171-0.893,6.041-2.336,8.119
				c-1.444,2.078-3.438,3.363-5.641,3.363c-2.203,0-4.197-1.285-5.641-3.363c-1.444-2.078-2.336-4.948-2.336-8.119
				c0-3.171,0.893-6.041,2.336-8.119c1.444-2.078,3.438-3.363,5.641-3.363c2.203,0,4.197,1.285,5.641,3.363
				C215.277,174.043,216.17,176.914,216.17,180.084z"/>
			<path style="fill:#904946;" d="M278.814,159.665c-1.229,0-2.421-0.648-3.061-1.798c-0.94-1.688-0.334-3.82,1.354-4.761
				c0.266-0.148,6.608-3.644,15.666-5.406c12.176-2.37,23.512-0.46,32.783,5.522c1.625,1.049,2.091,3.215,1.043,4.839
				c-1.048,1.623-3.215,2.089-4.838,1.044c-7.833-5.056-17.136-6.58-27.651-4.534c-7.975,1.552-13.542,4.62-13.597,4.65
				C279.975,159.522,279.391,159.665,278.814,159.665z"/>
			<path id="XMLID_2316_" style="fill:#533022;" d="M308.892,180.084c0,3.171-0.893,6.041-2.336,8.119
				c-1.444,2.078-3.438,3.363-5.641,3.363s-4.197-1.285-5.641-3.363c-1.444-2.078-2.336-4.948-2.336-8.119
				c0-3.171,0.893-6.041,2.336-8.119c1.444-2.078,3.438-3.363,5.641-3.363s4.197,1.285,5.641,3.363
				C307.999,174.043,308.892,176.914,308.892,180.084z"/>
			<path id="XMLID_2315_" style="fill:#CC8B81;" d="M264.152,211.994h-9.048h-9.048c-1.331,0-2.536-0.54-3.409-1.412
				c-0.872-0.872-1.412-2.077-1.412-3.409v-0.437v-0.437c0-1.331,0.54-2.536,1.412-3.409c0.872-0.872,2.077-1.412,3.409-1.412h9.048
				h9.048c1.331,0,2.536,0.54,3.409,1.412c0.872,0.872,1.412,2.077,1.412,3.409v0.437v0.437c0,1.331-0.54,2.536-1.412,3.409
				C266.688,211.454,265.483,211.994,264.152,211.994z"/>
			<path id="XMLID_2314_" style="fill:#FFFFFF;" d="M234.711,224.767c-0.522,0-0.988,0.223-1.314,0.577
				c-0.326,0.353-0.511,0.837-0.469,1.356c0.487,5.991,3.201,11.762,7.299,16.036c4.098,4.274,9.58,7.05,15.603,7.05h0h0
				c6.023,0,11.505-2.776,15.603-7.05c4.098-4.274,6.812-10.045,7.299-16.036c0.042-0.52-0.143-1.003-0.469-1.356
				c-0.326-0.353-0.793-0.577-1.314-0.577H255.83H234.711z"/>
			<path style="fill:#824141;" d="M222.693,175.125c-0.589,0-1.186-0.149-1.733-0.462c-5.556-3.176-11.54-4.143-17.78-2.873
				c-4.583,0.933-7.604,2.782-7.634,2.801c-1.638,1.016-3.795,0.52-4.817-1.114c-1.022-1.634-0.538-3.782,1.091-4.812
				c0.163-0.103,4.055-2.532,9.964-3.734c7.843-1.596,15.675-0.331,22.649,3.654c1.678,0.959,2.261,3.098,1.302,4.775
				C225.089,174.491,223.908,175.124,222.693,175.125z"/>
			<path style="fill:#824141;" d="M315.416,175.125c-0.588,0-1.186-0.149-1.733-0.462c-5.558-3.176-11.54-4.144-17.78-2.873
				c-4.584,0.933-7.604,2.782-7.634,2.801c-1.639,1.016-3.796,0.521-4.817-1.114c-1.022-1.634-0.538-3.782,1.091-4.812
				c0.163-0.103,4.055-2.532,9.964-3.734c7.841-1.595,15.673-0.331,22.648,3.654c1.679,0.959,2.262,3.098,1.302,4.775
				C317.812,174.491,316.631,175.125,315.416,175.125z"/>
			<path id="XMLID_2311_" style="fill:#9B7572;" d="M158.971,176.676c-1.577,0-3.005,0.639-4.038,1.673s-1.673,2.461-1.673,4.038
				s0.639,3.005,1.673,4.038c1.033,1.033,2.461,1.673,4.038,1.673v-5.711V176.676z"/>
			<path id="XMLID_2310_" style="fill:#9B7572;" d="M351.235,188.097c1.577,0,3.005-0.639,4.038-1.673
				c1.033-1.033,1.673-2.461,1.673-4.038s-0.639-3.005-1.673-4.038s-2.461-1.673-4.038-1.673v5.711V188.097z"/>
			<path id="XMLID_2309_" style="fill:#F76363;" d="M301.221,434.722l4.883-4.189l4.883-4.189c1.781-1.527,2.773-3.632,2.939-5.8
				c0.166-2.168-0.495-4.399-2.023-6.18l-28.678-33.429l-28.678-33.429l-11.331,9.721l-11.331,9.721l28.678,33.429l28.678,33.429
				c1.528,1.781,3.632,2.773,5.8,2.939S299.44,436.25,301.221,434.722z"/>
			<path id="XMLID_2308_" style="fill:#BC3737;" d="M214.593,434.722l-4.883-4.189l-4.883-4.189c-1.781-1.527-2.773-3.632-2.939-5.8
				c-0.166-2.168,0.495-4.399,2.023-6.18l28.678-33.429l28.678-33.429l11.331,9.721l11.331,9.721l-28.678,33.429l-28.678,33.429
				c-1.528,1.781-3.632,2.773-5.8,2.939S216.374,436.25,214.593,434.722z"/>
			<path id="XMLID_2306_" style="fill:#F92B43;" d="M263.568,481.081h-6.127h-6.127c-2.346,0-4.47-0.951-6.007-2.488
				c-1.537-1.537-2.488-3.661-2.488-6.007v-60.593v-60.593h14.623h14.623v60.593v60.593c0,2.346-0.951,4.47-2.488,6.007
				S265.914,481.081,263.568,481.081z"/>
			<polygon id="XMLID_2305_" style="fill:#A33434;" points="272.063,351.399 257.441,351.399 242.818,351.399 242.818,363.117 
				242.818,374.835 257.441,374.835 272.063,374.835 272.063,363.117 			"/>
			<path id="XMLID_2304_" style="fill:#CCCCCC;" d="M257.387,351.55l-9.714,12.093l-9.714,12.093
				c-1.145,1.425-2.842,1.987-4.436,1.774c-1.593-0.213-3.083-1.202-3.812-2.879l-11.665-26.812l-11.665-26.812l10.241-3.546
				l10.241-3.546l15.261,18.818L257.387,351.55z"/>
			<path id="XMLID_2303_" style="fill:#CCCCCC;" d="M257.391,351.55l9.714,12.093l9.714,12.093c1.145,1.425,2.842,1.987,4.436,1.774
				c1.593-0.213,3.083-1.202,3.812-2.879l11.665-26.812l11.665-26.812l-10.241-3.546l-10.241-3.546l-15.261,18.818L257.391,351.55z"
				/>
			<path id="XMLID_2301_" style="fill:#002C5D;" d="M409.782,140.835H256H102.218c-1.717,0-3.272-0.696-4.397-1.821
				S96,136.334,96,134.617v-9.115v-9.115c0-1.717,0.696-3.272,1.821-4.397s2.68-1.821,4.397-1.821H256h153.782
				c1.717,0,3.272,0.696,4.397,1.821c1.125,1.125,1.821,2.68,1.821,4.397v9.115v9.115c0,1.717-0.696,3.272-1.821,4.397
				C413.053,140.139,411.499,140.835,409.782,140.835z"/>
			<path id="XMLID_2299_" style="fill:#003C79;" d="M361.673,110.165H255.998H150.323L151.878,96l1.555-14.165l2.26-20.565
				l2.26-20.565c0.455-4.145,2.305-7.78,5.005-10.379c2.7-2.599,6.25-4.161,10.105-4.161h82.935h82.935
				c3.855,0,7.405,1.562,10.105,4.161c2.7,2.599,4.55,6.234,5.005,10.379l2.26,20.565l2.26,20.565L360.118,96L361.673,110.165z"/>
			<path id="XMLID_2298_" style="fill:#022749;" d="M162.21,140.835h-30h-30c-1.715,0-3.268-0.695-4.391-1.82
				c-1.124-1.125-1.819-2.68-1.819-4.4V125.5v-9.115c0-1.715,0.695-3.27,1.819-4.396s2.676-1.824,4.391-1.824h30h30
				c-1.715,0-3.268,0.698-4.391,1.824S156,114.67,156,116.385v9.115v9.115c0,1.72,0.695,3.275,1.819,4.4
				C158.943,140.14,160.495,140.835,162.21,140.835z"/>
			<path id="XMLID_2296_" style="fill:#01345E;" d="M233.06,26.165c-3.855,0-7.405,1.562-10.105,4.161
				c-2.7,2.599-4.55,6.234-5.005,10.379l-2.26,20.565l-2.26,20.565L211.875,96l-1.555,14.165h-30h-30L151.875,96l1.555-14.165
				l2.26-20.565l2.26-20.565c0.455-4.145,2.305-7.78,5.005-10.379c2.7-2.599,6.25-4.161,10.105-4.161h30H233.06z"/>
			<polygon id="XMLID_2295_" style="fill:#F92B43;" points="361.673,110.165 255.998,110.165 150.323,110.165 151.878,96 
				153.433,81.835 255.998,81.835 358.563,81.835 360.118,96 			"/>
			<polygon id="XMLID_2293_" style="fill:#B53333;" points="213.43,81.835 211.875,96 210.32,110.165 180.32,110.165 
				150.32,110.165 151.875,96 153.43,81.835 183.43,81.835 			"/>
			<path id="XMLID_2292_" style="fill:#533022;" d="M285.15,212.258h-14.162h-14.162h-0.995h-0.995h-14.162H226.51
				c-6.909,0-13.163,2.8-17.691,7.328c-4.527,4.527-7.328,10.782-7.328,17.691h15.157h15.157c5.696,0,10.947-1.904,15.15-5.111
				s7.362-7.716,8.873-12.925c1.512,5.209,4.669,9.718,8.873,12.925s9.454,5.111,15.15,5.111h15.157h15.157
				c0-6.909-2.8-13.163-7.328-17.691C298.313,215.058,292.058,212.258,285.15,212.258z"/>
		</g>
	</g>
</g>
</svg>
