<?xml version="1.0" encoding="UTF-8" standalone="no"?>
<!-- Created with Inkscape (http://www.inkscape.org/) -->

<svg
   version="1.1"
   id="svg479"
   xml:space="preserve"
   width="1010.3884"
   height="906.93262"
   xmlns:inkscape="http://www.inkscape.org/namespaces/inkscape"
   xmlns:sodipodi="http://sodipodi.sourceforge.net/DTD/sodipodi-0.dtd"
   xmlns="http://www.w3.org/2000/svg"
   xmlns:svg="http://www.w3.org/2000/svg"><defs
     id="defs483" /><sodipodi:namedview
     id="namedview481"
     pagecolor="#ffffff"
     bordercolor="#cccccc"
     borderopacity="1"
     inkscape:showpageshadow="0"
     inkscape:pageopacity="1"
     inkscape:pagecheckerboard="0"
     inkscape:deskcolor="#d1d1d1" /><inkscape:clipboard
     style="font-variation-settings:normal;opacity:1;vector-effect:none;fill:#ffffff;fill-opacity:1;stroke-width:3.53851875;stroke-linecap:butt;stroke-linejoin:miter;stroke-miterlimit:4;stroke-dasharray:none;stroke-dashoffset:0;stroke-opacity:1;-inkscape-stroke:none;stop-color:#000000;stop-opacity:1"
     min="13.29484,7.936159"
     max="1023.6832,914.86875"
     geom-min="15.446773,10.028767"
     geom-max="1021.5313,912.77615" /><g
     id="g485"
     transform="matrix(3.7795276,0,0,3.7795276,-13.29484,-7.9361591)"><g
       id="g521"
       transform="matrix(1.0002874,0,0.01320546,0.87628055,553.9225,-18.9389)"><g
         id="g515"
         transform="matrix(11.298891,0.073455,-0.08167531,12.563346,-549.17787,-323.20213)"><rect
           style="fill:#66baee;fill-opacity:1;stroke:#3e1100;stroke-width:0.1;stroke-dasharray:none;stroke-dashoffset:0;stroke-opacity:1"
           id="rect513"
           width="23.38983"
           height="21.559273"
           x="0.12711863"
           y="27.68639" /></g><a
         id="a519"
         transform="matrix(11.29913,0,0,11.584878,-561.55866,-58.237768)"
         style="fill:#ffffff"><path
           d="m 10.638645,25.813559 h 3 v 3 h -3 v -3 m 2,-16.9999996 c 5.35,0.22 7.68,5.6199996 4.5,9.6699996 -0.83,1 -2.17,1.66 -2.83,2.5 -0.67,0.83 -0.67,1.83 -0.67,2.83 h -3 c 0,-1.67 0,-3.08 0.67,-4.08 0.66,-1 2,-1.59 2.83,-2.25 2.42,-2.24 1.82,-5.41 -1.5,-5.67 a 3,3 0 0 0 -2.9999995,3 h -3 A 6,6 0 0 1 12.638645,8.8135594 Z"
           id="path517"
           style="fill:#ffffff;fill-opacity:1" /></a></g></g></svg>
